# xmcd
#
# Track frame offsets:
#	150
#	16947
#	33991
#	53374
#	68135
#	81723
#	99294
#	113003
#	132065
#	147149
#
# Disc length: 2218 seconds
#
# Revision: 0
# Processed by: cddbd v1.5.2PL0 Copyright (c) Steve Scherf et al.
# Submitted via: dBpowerAMP V4.0
#
DISCID=7708a80a
DTITLE=Johnny Reid - Kicking Horses
DYEAR=2009
DGENRE=Country
TTITLE0=A Woman Like You
TTITLE1=Old Flame
TTITLE2=Dance With Me
TTITLE3=Let's Take It Outside
TTITLE4=Hey O!
TTITLE5=Brings Me Home
TTITLE6=Keep Working On Me
TTITLE7=A Moon To Remember
TTITLE8=Slow Down
TTITLE9=My Old Friend
EXTD=
EXTT0=
EXTT1=
EXTT2=
EXTT3=
EXTT4=
EXTT5=
EXTT6=
EXTT7=
EXTT8=
EXTT9=
PLAYORDER=
